# xmcd CD database file
#
# Track frame offsets:
#	150
#	39750
#	68150
#	97825
#	117250
#	139700
#	164050
#	231725
#	254175
#	273725
#
# Disc length: 4290 seconds
#
# Revision: 1
# Processed by: cddbd v1.5.2PL0 Copyright (c) Steve Scherf et al.
# Submitted via: CDex 1.70beta2
#
DISCID=9610c00a
DTITLE=John Coltrane - JAZZ Millennium
DYEAR=2001
DGENRE=Jazz
TTITLE0=COME RAIN OR COME SHINE
TTITLE1=VIOLETS FOR YOUR FURS
TTITLE2=SOFTLY AS IN A MORNING SUNRISE
TTITLE3=IN A SENTMENTAL MOOD
TTITLE4=MY ONE AND ONLY LOVE
TTITLE5=SOULTRANE
TTITLE6=IMPRESSIONS
TTITLE7=LIKE SOMEONE IN LOVE
TTITLE8=SAY IT(OVER AND OVER AGAIN)
TTITLE9=STARDUST
EXTD=YEAR: 2001
EXTT0=
EXTT1=
EXTT2=
EXTT3=
EXTT4=
EXTT5=
EXTT6=
EXTT7=
EXTT8=
EXTT9=
PLAYORDER=
